<?xml version="1.0" encoding="UTF-8" standalone="no"?>
<!-- Created with Inkscape (http://www.inkscape.org/) -->

<svg
   version="1.1"
   id="svg1"
   width="1706.6667"
   height="960"
   viewBox="0 0 1706.6667 960"
   sodipodi:docname="raposinha.svg"
   inkscape:version="1.4.2 (1:1.4.2+202505120737+ebf0e940d0)"
   xmlns:inkscape="http://www.inkscape.org/namespaces/inkscape"
   xmlns:sodipodi="http://sodipodi.sourceforge.net/DTD/sodipodi-0.dtd"
   xmlns="http://www.w3.org/2000/svg"
   xmlns:svg="http://www.w3.org/2000/svg">
  <defs
     id="defs1" />
  <sodipodi:namedview
     id="namedview1"
     pagecolor="#ffffff"
     bordercolor="#000000"
     borderopacity="0.25"
     inkscape:showpageshadow="2"
     inkscape:pageopacity="0.0"
     inkscape:pagecheckerboard="0"
     inkscape:deskcolor="#d1d1d1"
     inkscape:zoom="0.38333333"
     inkscape:cx="1149.1304"
     inkscape:cy="846.52175"
     inkscape:window-width="1870"
     inkscape:window-height="1131"
     inkscape:window-x="1920"
     inkscape:window-y="32"
     inkscape:window-maximized="1"
     inkscape:current-layer="g1" />
  <g
     inkscape:groupmode="layer"
     inkscape:label="Image"
     id="g1">
    <path
       id="path1"
       style="fill:#1af0dc;fill-opacity:0.78431374;stroke:#000000;stroke-opacity:0"
       d="M 392.90625 337.10547 C 372.43071 342.69726 369.44096 363.83321 358.7793 378.14844 C 355.02918 367.54184 355.03036 354.86016 346.55859 349.0957 C 314.88373 342.76995 300.71124 352.44835 286.83984 362.92969 C 266.50699 384.13944 253.15381 406.74624 238.69531 429.13086 C 240.05693 411.8604 252.44465 397.03131 246.52148 379.56445 C 241.92653 367.20288 234.90337 357.26996 221.73828 353.47852 C 209.65122 354.26123 198.5607 354.04833 172.17383 369.13086 L 151.30469 386.08789 C 143.9659 373.57843 138.42696 357.01761 126.52148 354.7832 C 107.75797 346.62035 98.02766 360.13393 84.783203 365.2168 C 71.06939 379.393 55.355633 392.99936 49.804688 409.50781 C 67.021197 407.10513 84.238562 393.35906 101.45508 376.30469 L 22.134766 547.85352 C 17.79102 565.20389 31.945509 587.33605 57.183594 577.36719 C 93.101073 522.72817 118.29296 464.5145 147.57031 407.66211 L 202.9082 374.45898 L 180.77344 420.57422 C 183.91524 438.27304 189.79149 455.50426 215.82227 461.15625 C 207.59159 483.82754 201.26543 506.67232 200.14258 531.71289 C 209.49388 549.06595 216.45509 566.99179 243.95117 566.76172 C 259.43885 566.76472 275.50531 554.45213 299.29102 522.49023 C 295.92952 534.63402 301.00136 546.77808 309.89648 558.92188 C 318.81218 569.51481 327.72883 570.29507 336.64453 569.99023 C 354.87654 568.56485 361.93598 562.94981 370.76953 558 C 346.30746 606.26772 326.5836 656.84166 308.05273 705.10938 C 316.51413 725.06889 329.13623 742.3493 353.24609 734.62305 L 451.93359 526.64062 C 453.471 535.9253 460.44172 542.70083 468.99609 552.92773 C 485.10001 566.16696 498.31712 566.04862 516.95703 564.22461 C 540.44043 553.86626 553.54297 546.97903 565.83984 527.5625 C 582.295 502.85401 598.07866 478.78531 609.64844 452.85547 C 620.57389 434.87226 623.50782 415.32592 627.17383 396.13281 C 627.53413 384.16152 632.82249 369.87108 607.34375 355.55078 C 593.65987 345.70408 583.78696 347.29071 573.67969 348.17383 C 553.37811 349.51149 549.94845 356.98351 542.32031 362.92969 L 528.94727 373.99805 C 514.36059 363.31003 504.25201 347.24704 484.21484 343.09961 L 402.58984 496.66602 C 390.83957 514.63985 376.88068 533.85942 357.85742 550.62109 C 354.44515 552.66052 347.65322 555.74467 336.93164 555.34766 C 338.25298 540.20343 346.43376 518.3157 357.72266 496.77539 L 417.34766 375.38086 C 417.14373 368.73175 413.69501 364.51566 408.58398 361.54688 C 403.84301 352.91431 406.37091 337.01435 392.90625 337.10547 z M 340.33398 356.47461 C 342.1599 356.60773 345.66069 358.8604 349.32617 372.61523 C 350.67162 377.14994 352.28102 381.68404 352.32422 386.21875 L 349.78711 393.13672 C 344.1737 405.28051 338.26148 417.42262 332.0332 429.56641 L 320.73438 454.00781 C 313.76675 471.01444 308.07757 488.27787 298.36914 504.73633 C 289.37659 514.12337 281.67409 522.35786 269.08398 534.25 C 263.2925 539.72042 246.66875 553.3186 244.18164 549.69922 C 243.10701 537.40566 244.78498 523.15077 254.09766 506.58008 C 257.46986 499.00253 261.96049 491.9851 266.54102 485.01172 C 269.8825 478.12183 273.65278 471.45181 277.38477 464.61523 C 284.99672 449.70737 293.41475 435.60451 301.5957 421.26562 C 305.19975 413.82313 316.94542 406.65737 318.46289 397.19531 C 320.19657 386.38508 322.75596 376.2111 326.34375 367.81445 C 329.06727 361.44049 334.749 357.90919 340.33398 356.47461 z M 578.19336 360.52344 C 579.82081 360.56616 581.41611 360.80785 582.90234 361.31641 L 583.82422 363.62109 C 583.86366 366.05101 584.75766 367.49601 583.36328 372.38477 C 578.64145 387.91038 569.6023 403.43533 562.15039 418.96094 C 555.28534 433.84385 546.22461 449.36743 536.32422 464.8457 L 508.42578 480.06445 C 503.92107 481.37106 499.85238 481.29428 490.90039 483.98438 L 469.45703 494.12891 L 488.5957 458.1582 L 523.64258 391.29102 C 531.13965 384.08292 538.89776 377.20901 549.46875 371.23047 C 555.13038 366.4122 560.50415 364.76718 566.30078 362.92969 C 569.22249 361.77351 572.91155 360.72671 576.55859 360.54492 C 577.10565 360.51765 577.65088 360.5092 578.19336 360.52344 z M 523.20703 488.80469 L 510.16211 510.97852 C 507.15645 515.2505 505.4768 517.61428 502.33789 521.41211 L 491.41211 534.29297 C 488.65955 537.26451 485.24718 539.90564 481.63086 542.44531 C 477.76128 543.5758 474.14206 543.70538 470.70703 543.09766 C 467.55939 542.36846 464.78293 539.77732 462.06445 536.90234 C 459.9848 531.96178 459.62272 529.04645 459.63672 524.94336 C 461.25921 520.53984 460.97445 520.76552 464.29688 517.20117 C 469.01803 512.70122 476.29576 509.48049 482.77148 505.92383 L 523.20703 488.80469 z " />
    <path
       id="path5"
       style="fill:#1af0dc;fill-opacity:0.78431374;stroke:#000000;stroke-opacity:0"
       d="M 1365 216.19531 C 1360.3384 239.99965 1351.0304 263.80499 1342.1738 287.60938 L 1314.7832 351.68555 L 1273.3691 451.95703 L 1250.0547 499.48438 C 1239.2029 515.52706 1236.6061 518.47392 1225.3984 529.19141 C 1222.057 531.93944 1215.2519 537.34724 1210.666 541.42383 C 1208.0545 543.74523 1189.1205 546.11138 1189.4141 544.7168 C 1191.8886 530.60546 1200.0296 518.04928 1208.0762 503.80469 C 1216.7985 490.43338 1221.4059 477.35122 1227.8711 463.92578 C 1237.1101 448.41414 1245.1099 432.90229 1252.8262 417.39062 C 1258.634 404.86838 1262.9527 392.96549 1265.2168 380.54297 C 1265.9386 377.13581 1265.1008 371.09293 1263.998 363.83594 C 1262.7439 355.58267 1260.4929 346.17173 1256.168 339.21289 C 1252.9891 334.81337 1245.9919 324.10854 1230.9785 324.7832 C 1226.9452 325.08346 1208.0466 331.77347 1194.7012 341.98438 C 1187.4813 347.99707 1181.8833 353.19083 1176.4102 358.31836 L 1139.5176 396.59375 L 1135.3672 362.92969 C 1131.7803 354.95032 1129.6973 346.56164 1119.6875 340.33398 C 1117.2949 339.32366 1116.6774 338.0169 1110.9258 337.56641 C 1104.2253 337.88962 1097.6474 339.44701 1091.5566 345.86719 C 1075.8466 364.00602 1063.7145 381.30963 1055.127 400.2832 L 1037.6016 437.29102 C 1033.5257 447.63582 1028.5366 457.86844 1021.4609 467.61328 C 1011.3923 481.38209 1000.9197 495.03573 988.71875 508.19531 L 958.57227 537.07422 C 957.50208 535.9273 957.33484 534.58999 958.2832 531.71289 C 965.92372 514.03522 973.47506 496.35736 984.10742 478.67969 C 992.68725 459.57057 1001.8632 441.17242 1007.627 421.03516 C 1012.9389 406.20129 1018.202 392.52158 1022.6152 377.22656 C 1024.2643 372.61499 1024.0934 368.00224 1025.1504 363.39062 C 1024.8599 350.94158 1015.4742 344.18855 1005.5527 335.95312 C 1000.856 331.20054 992.21368 321.32993 983.64648 323.73242 C 982.38511 340.15717 975.2695 355.84873 969.35156 371.69141 L 941.2207 399.82227 C 934.21872 406.73812 925.07962 413.38732 915.65234 420 C 906.67658 425.59225 897.72368 431.58475 886.07422 435.39453 L 875.54297 439.40234 C 871.11609 432.37911 866.80584 425.41387 862.98828 418.69531 C 859.11766 412.55401 856.95561 406.41278 856.4668 400.27148 L 855.72852 383.24023 L 854.18555 377.11914 C 865.21494 368.81501 876.35316 360.26316 884.02148 348.58789 C 887.031 344.2518 889.41676 339.85745 889.07617 335.2168 C 887.85467 332.60688 887.0137 330.03554 885.48828 329.51172 C 881.59147 324.6573 877.64962 324.30725 870.81445 323.15234 L 858.42383 322.01172 C 854.5506 321.74879 851.31753 321.91196 848.36328 322.26172 C 840.65815 325.81655 835.84693 329.34573 831.35938 335.2168 C 827.4013 339.22612 826.68569 343.64219 825 347.93555 L 823.20703 362.44531 L 823.04297 378.42383 L 823.20703 385.76172 L 775.43555 404.83789 C 774.86521 399.79966 779.73188 391.49873 781.95703 384.7832 C 783.51917 380.20452 783.86397 376.02974 783.58594 372.06445 C 782.93136 365.84283 781.94269 359.79045 778.85938 354.7832 C 776.75216 351.6163 775.3281 348.22153 771.50977 345.625 C 769.57242 343.0932 763.52588 340.4103 758.04492 338.33203 C 753.26816 336.13428 747.61251 334.59486 740.38086 334.23828 C 734.78463 333.52456 731.03328 333.28082 726.35938 334.56445 C 720.83077 336.33002 717.15429 337.52545 713.80469 339.94531 L 701.90234 351.35938 L 698.31445 355.59766 C 692.13145 354.09349 685.88173 352.5547 678.49219 350.44727 C 663.19229 366.54077 653.33037 383.8228 642.7168 401.08789 L 624.7832 431.73828 C 613.45846 450.39682 606.72151 468.85163 600 487.82617 C 598.48094 502.93487 601.35365 518.04364 607.82617 533.15234 C 612.53755 541.1233 617.77898 549.23409 627.39062 555.97852 C 637.28359 561.31123 646.10234 562.34185 654.7832 562.82617 C 671.26251 561.36995 674.97026 557.54873 684.13086 552.7168 C 697.26266 544.67332 702.39922 536.63137 710.54297 528.58789 C 719.62676 516.76724 727.09539 505.7607 734.67383 494.34766 C 741.76059 482.74906 749.67836 471.54495 756.84766 459.55273 C 761.21499 451.20244 763.64045 442.65849 764.94336 433.69531 L 765.97852 425.86914 L 767.60938 415.43555 L 821.41211 395.86914 L 824.17578 394.89062 C 825.08504 400.36811 825.83406 405.80505 827.92578 411.57812 C 830.1791 416.76941 830.79419 420.55098 833.99219 425.41211 C 838.89521 433.52472 843.54265 442.67449 849.36133 450.78711 C 835.86982 457.2525 822.24823 463.6259 810.84375 471.58203 C 800.85662 478.81869 792.55515 484.9698 785.54297 492.7168 C 779.0114 499.37005 777.85178 507.02325 775.16797 514.56445 C 775.32019 523.93763 777.41806 529.63709 780.32617 533.80469 C 784.49759 539.74197 789.53081 544.70035 796.45508 547.88477 C 808.25782 553.51038 817.71074 556.69811 830.4082 556.5918 C 839.68546 556.98437 848.46823 555.16561 859.89062 551.08789 C 869.91054 544.79228 874.99552 539.4882 881.41211 531.19531 C 885.54697 525.07027 889.69896 519.64122 891.78906 514.18359 C 893.49276 509.73495 893.51641 505.53537 894.13086 500.86914 C 894.47452 496.74168 894.58505 492.61379 894.01172 488.48633 C 893.55197 484.13553 893.0102 480.47668 891.90625 474.28125 C 889.36106 467.06109 886.74311 459.8545 882.39062 452.93555 L 880.76172 450.32617 L 908.80469 435.32617 C 920.64944 429.29571 933.97376 424.61192 942.7168 415.76172 L 966.52148 384.45703 L 943.69531 435.97852 L 925.76172 476.08789 C 921.5968 489.96093 917.13679 503.91321 917.60938 516.52148 C 916.4881 526.40001 921.00741 538.72006 927.7168 546.52148 C 933.04622 551.59032 938.07182 556.43261 944.63477 560.40625 C 954.86994 565.59091 962.40881 558.69812 967.48047 553.96484 L 1009.2383 497.2832 C 1019.2705 484.09908 1029.495 471.86423 1039.1992 457.71094 C 1049.7834 438.40154 1055.5299 419.0926 1063.6953 399.7832 C 1069.6978 388.18601 1079.6437 377.57369 1087.8262 366.52148 L 1105.4355 345.97852 C 1106.0942 348.38007 1108.1729 350.48689 1107.3672 353.19141 L 1082.1191 412.5 L 1054.9629 471.15625 L 1027.0957 543.81836 L 1028.0723 546.29102 C 1038.1192 554.20207 1054.6133 555.26627 1069.2949 556.80469 C 1075.6975 551.38245 1080.2567 543.42786 1083.0605 533.80273 C 1086.8916 520.65064 1094.273 504.28789 1105.4355 481.30469 C 1115.7376 458.91339 1124.4043 436.35912 1134.6191 414.13086 C 1152.3723 400.49137 1172.2843 382.4983 1190.2227 365.36523 C 1205.769 350.51688 1224.7346 340.80048 1233.0977 336.35938 C 1238.028 334.68745 1240.0645 337.37977 1242.7168 338.80469 C 1220.2775 366.51297 1205.6439 395.20471 1193.1875 424.12305 L 1169.3477 472.82617 C 1164.2938 483.91313 1160.1406 495.00093 1159.3906 506.08789 C 1157.8239 519.03266 1160.4416 527.63566 1163.1523 535.43555 C 1165.7202 541.4591 1170.5632 546.97552 1175.8691 552.39062 C 1183.1991 559.07124 1189.588 559.11401 1199.8281 558.34375 C 1209.5548 556.23719 1215.2043 554.16372 1223.3145 549.13086 C 1230.2727 542.81616 1233.5401 537.34462 1237.5 531.84766 L 1235.1445 541.86523 C 1235.2395 546.0819 1236.0272 551.57875 1238.8867 555.48828 C 1241.1323 558.93521 1244.3577 562.22837 1250.707 565.02734 C 1255.4285 566.29433 1260.2251 567.47368 1267.5 565.76172 C 1277.9111 552.50867 1286.4121 538.7311 1292.9141 524.60938 C 1302.2921 505.64035 1310.464 487.62088 1319.3477 469.23828 L 1356.1953 386.73828 C 1364.2261 374.9972 1372.9134 363.35794 1388.8047 352.82617 C 1395.2972 349.14619 1400.0283 344.32716 1408.8477 345.88281 C 1407.2597 354.93638 1405.1723 363.9894 1400.543 373.04297 L 1384.5645 413.15234 C 1378.5356 426.72962 1372.0572 440.57323 1365.4941 452.89453 C 1357.8569 467.0652 1353.6973 480.07685 1349.6738 493.04297 C 1342.7472 512.99746 1346.2225 519.41231 1349.5977 531.25391 C 1352.2223 537.70584 1355.2287 544.13552 1360.4355 550.43555 C 1364.0205 553.70755 1368.5291 556.39171 1373.8047 558.58789 C 1378.0644 560.35907 1382.3764 560.60942 1386.7891 561.00391 C 1394.4307 559.07988 1397.9894 555.68206 1402.8262 552.7168 L 1424.0215 517.82617 L 1438.3691 535.10938 L 1450.7598 541.95703 L 1471.3047 538.36914 L 1497.0645 526.30469 L 1520.2168 502.17383 L 1529.3477 531.52148 C 1531.4745 537.64251 1533.8921 543.67095 1541.7383 548.80469 C 1547.3186 551.89323 1552.159 552.76651 1560 553.69531 C 1567.5147 554.0865 1572.8385 553.5812 1581.3672 552.37109 C 1598.6813 546.92233 1605.4897 531.93359 1615.1094 519.7832 L 1625.1152 505.04883 C 1632.6638 492.35161 1638.554 479.98042 1644.7832 467.2832 L 1606.6289 513.89453 L 1593.9121 527.11914 C 1590.5157 531.66118 1583.2341 535.6287 1575.3262 539.02148 C 1564.4044 541.57445 1560.3396 541.122 1556.166 538.65625 C 1554.271 536.02605 1551.9432 535.36116 1553.8047 527.2832 C 1559.2875 503.19948 1575.8689 481.3349 1587.0098 458.38281 L 1613.9785 406.30469 C 1624.6252 386.84817 1631.2567 367.39207 1639.5645 347.93555 C 1629.7819 337.28338 1619.9994 312.8832 1610.2168 315.97852 C 1593.1139 330.82799 1588.0207 349.10805 1578.75 366.19531 L 1578.5859 351.92969 C 1577.8647 346.53063 1577.3779 341.15194 1574.3477 335.54297 C 1570.3087 329.53782 1565.0621 324.91294 1556.7383 323.80469 C 1549.2915 322.13813 1539.9538 322.53865 1531.8008 323.99805 C 1521.636 326.38647 1517.057 331.78948 1512.3516 339.33398 C 1510.2414 339.25428 1508.1317 338.81164 1506.0215 340.49023 C 1497.4563 349.59167 1489.678 358.57069 1483.5215 368.85938 L 1466.4121 394.23828 L 1466.4121 394.56445 C 1458.648 408.41557 1450.4777 422.67367 1443.2598 435.97852 C 1438.0229 444.49637 1433.9252 453.24091 1430.2168 462.06445 C 1426.5549 472.23171 1424.2459 482.56834 1423.043 493.04297 C 1421.5987 499.13939 1421.7555 504.80043 1421.9668 510.44531 C 1416.9549 517.36227 1413.4415 523.00989 1406.0703 531.77148 C 1400.2367 538.84156 1395.5339 542.31945 1388.3809 545.48828 C 1385.3007 545.96875 1383.0231 545.19815 1380.1914 542.93555 C 1378.8411 541.49511 1378.1646 539.95102 1377.7168 537.7168 C 1383.0874 522.63721 1393.7968 508.15092 1401.8477 493.36914 C 1409.9633 478.59208 1414.5807 463.5234 1420.9355 448.59961 C 1428.2717 434.46917 1432.2258 420.10896 1437.1445 405.97852 C 1440.8079 393.04374 1442.0139 380.10861 1442.6094 367.17383 C 1440.7024 359.66146 1439.4607 351.98285 1432.8262 345.65234 C 1428.6631 341.68225 1424.0964 338.01425 1417.5 335.86914 C 1408 332.66047 1400.7915 333.57662 1394.3477 335.86914 C 1385.9646 340.2102 1379.1527 345.33672 1374.457 351.52148 L 1369.2383 357.39062 L 1381.7812 322.5957 C 1386.9558 302.3106 1394.2926 283.85184 1402.4609 262.73047 C 1402.9229 254.57829 1401.0839 246.42561 1397.2422 238.27344 C 1395.0408 234.56305 1391.126 234.30413 1387.7715 231.4668 C 1380.0287 224.91784 1371.9013 217.51964 1365 216.19531 z M 1555.1641 327.76758 C 1556.994 327.69455 1558.7512 327.87635 1560.3262 328.69531 C 1565.376 330.70236 1568.1127 334.69325 1571.0879 338.47852 C 1573.0324 343.84329 1572.8215 348.34633 1573.3691 353.15234 C 1572.5173 361.90678 1572.3679 370.83601 1570.4121 379.31445 L 1563.8535 396.17578 L 1553.4785 416.41211 L 1544.3477 438.58789 C 1541.3478 446.51453 1536.9154 454.41881 1533.2383 462.62109 C 1529.6593 470.26167 1524.1782 480.3816 1521.2324 484.9668 C 1516.2001 492.17768 1509.641 498.00218 1503.1367 503.74805 C 1496.8323 509.66861 1496.3103 511.31586 1487.4102 517.32422 C 1483.571 519.91604 1481.1562 520.11138 1474.334 522.74219 C 1468.4128 524.91782 1463.5306 526.641 1457.6094 525.32617 C 1456.8858 525.02099 1456.1415 524.77852 1455.9785 522.7168 C 1455.3156 515.73375 1458.3285 509.56845 1460.2168 503.15234 L 1467.0645 482.2832 C 1468.9054 475.46698 1472.995 469.14884 1475.7578 462.94727 C 1479.451 453.83808 1484.3454 445.10869 1489.5645 436.30469 C 1494.9527 428.29537 1499.622 420.71788 1503.6855 411.86719 C 1507.613 404.90129 1511.6201 397.96776 1516.3047 391.30469 C 1519.6897 385.76121 1522.4877 380.21731 1525.1094 374.67383 L 1531.7891 355.01367 C 1534.646 348.08898 1534.9592 341.16297 1541.0879 334.23828 C 1543.4713 331.54403 1546.2591 329.52671 1549.5645 328.36914 C 1551.4308 328.16837 1553.3342 327.84061 1555.1641 327.76758 z M 866.66211 328.53125 C 867.73879 328.49511 869.01284 328.50639 870.54883 328.57422 C 873.18745 329.41444 875.66625 329.56224 878.73438 332.26367 C 880.31953 333.89375 881.62311 335.61755 881.38477 337.85547 C 881.82619 340.812 877.77236 345.48071 875.27539 349.55664 C 871.96741 353.23024 868.33264 356.81377 863.51562 360.625 L 852.67773 369.15625 C 852.67773 369.15625 851.9171 357.87428 851.52539 356.01367 C 851.06424 353.82318 852.67773 342.75391 852.67773 342.75391 C 853.28095 338.88947 854.81419 335.68808 856.94336 332.60938 C 857.97145 331.61408 858.81963 330.54571 860.57617 329.8418 C 861.98004 329.16947 863.43206 328.63967 866.66211 328.53125 z M 747.99023 345.75781 C 750.2545 345.83775 752.32759 346.10749 754.2207 346.55859 C 758.18554 347.49152 760.73601 348.8966 763.44531 350.24805 C 765.78942 352.45781 767.89116 354.78882 768.51758 357.85742 C 769.09737 360.74466 769.47554 363.79233 768.97852 367.54102 C 768.5051 370.49138 768.22125 373.38044 767.13477 376.53516 L 761.83008 391.29102 C 758.67884 398.97696 757.98014 406.25547 752.05078 413.94141 C 746.75956 416.4555 746.23969 416.45411 743.95312 417.1582 C 738.02104 419.2195 732.89208 420.53541 726.32227 421.95898 L 716.50195 422.51367 C 714.83494 421.5917 713.8543 421.26788 712.7168 417.80859 L 710.18164 407.20117 C 709.47213 404.76886 709.58053 402.49948 709.95117 400.2832 C 710.16581 398.43857 710.54183 396.59463 712.25586 394.75 C 714.5663 392.2905 716.54707 389.83059 717.56055 387.37109 C 717.98332 384.88284 717.84845 382.42271 717.56055 379.30078 C 717.29292 377.80539 716.69661 376.1065 715.6582 373.65234 C 714.85033 371.03932 713.58913 368.84191 714.79297 365.92773 L 725.16797 353.70703 C 726.59 352.18532 728.66635 349.83146 732.83203 347.43945 C 737.44702 345.98157 737.38711 346.60192 740.61719 346.09766 C 743.27112 345.78793 745.72597 345.67787 747.99023 345.75781 z M 699.13086 424.23828 C 702.34307 429.13377 706.8546 434.04687 713.47852 437.93555 C 715.79384 438.94497 720.12064 440.234 725.54297 440.2168 C 730.25231 439.91879 734.80516 439.79828 741.19531 437.60938 C 739.66475 443.14157 738.14493 448.67401 734.91797 453.99414 C 731.6724 460.57352 726.85926 466.78368 722.9375 473.82422 C 718.78783 481.54161 713.77386 488.91347 708.26172 496.63086 C 704.44385 502.45849 700.14512 507.72765 695.71875 513.54883 C 689.51702 521.6881 682.24771 529.54847 673.50391 537.38867 C 667.99375 542.08862 665.17128 543.98141 657.39062 546.19531 C 653.64725 547.11793 649.8743 547.79663 645.97852 547.5 C 643.95259 547.17916 642.53447 546.09631 641.73828 544.23828 C 639.13222 535.96891 639.61284 528.79433 641.41211 520.43555 C 643.92138 512.37502 647.56685 504.32705 650.83008 497.16797 C 654.72232 488.53247 657.0211 486.23463 662.23047 478.00781 C 665.54272 472.8007 668.37162 468.5117 672.25977 462.10547 C 680.4904 450.18689 687.58938 438.44406 695.90625 426.94336 C 696.92068 425.67916 697.90729 424.24728 699.13086 424.23828 z M 855.04688 460.97461 C 856.00054 460.96112 856.85191 461.50033 857.52148 463.00195 C 858.24883 464.55042 858.47402 468.10506 858.67383 471.76367 C 858.55252 475.35615 858.23061 479.07979 856.36719 482.59961 C 854.40993 486.82688 852.74142 491.05398 850.37305 495.28125 C 847.43084 500.89199 845.09992 506.50449 840.45703 512.11523 C 836.50352 515.81864 832.16571 518.80465 825.58594 523.21094 C 819.68569 527.15251 816.88963 527.8719 807.71484 530.33008 C 804.52583 530.66466 801.59018 530.69508 797.80078 530.70508 C 794.35172 530.21995 792.34391 530.0499 789.26953 528.48633 C 787.77151 527.40734 786.31369 526.16591 785.11914 523.87305 C 784.27438 520.56809 784.09564 517.14871 784.77344 513.84375 C 786.06734 509.2104 788.37313 505.06444 791.80664 500.35547 C 794.87731 496.55 797.40959 493.30154 802.52734 488.94141 C 805.98154 485.80715 809.54888 482.32233 813.61523 479.49414 C 824.31697 470.87736 837.93416 466.49803 854.0625 461.15625 C 854.40055 461.04419 854.72899 460.97911 855.04688 460.97461 z " />
    <path
       style="fill:#1af0dc;fill-opacity:0.78431374;stroke:#000000;stroke-opacity:0"
       d="m 1053.9724,194.692 c -0.5737,1.28456 -0.9612,2.2869 -0.7884,3.55315 0.3376,2.47483 -0.1203,4.56855 -0.5194,6.63127 -6.3592,8.74921 -9.4057,18.81655 -13.4651,28.37126 -5.5922,10.04154 -9.8413,20.04378 -13.0039,30.23058 -3.3518,7.83875 -4.0418,15.25723 -4.7941,24.01345 0.9049,2.51607 2.1987,2.96578 7.4028,3.37786 10.7818,0.29516 15.467,0.39719 23.4782,-0.97826 7.2863,-1.75097 11.8489,-4.06809 16.3044,-8.15218 l 15.4396,-23.17196 c 4.3347,-6.02647 9.5881,-11.71198 12.2778,-17.58891 3.6754,-6.57284 2.7796,-12.08694 0.9782,-17.28261 -2.1259,-5.3203 -5.2262,-7.79482 -8.8043,-10.76087 -5.0812,-3.97979 -12.3667,-7.41209 -19.3313,-11.031 -4.6278,-2.51676 -6.4705,-5.64801 -15.1746,-7.21178 z"
       id="path11"
       sodipodi:nodetypes="cscccccccccccccc" />
  </g>
</svg>
